<?xml version="1.0" encoding="UTF-8"?>
<svg width="264px" height="26px" viewBox="0 0 264 26" version="1.1" xmlns="http://www.w3.org/2000/svg" xmlns:xlink="http://www.w3.org/1999/xlink">
    <title>Sign_In_With_Ink_FR</title>
    <g id="Sign_In_With_Ink_FR" stroke="none" stroke-width="1" fill="none" fill-rule="evenodd">
        <g id="button-/-primary-/-normal">
            <path d="M0.634003 15V1.833H2.952V15H0.634003Z" fill="#111111"/>
            <path d="M12.679 15L12.451 14.069C11.5896 14.829 10.5953 15.209 9.46796 15.209C8.25196 15.209 7.27663 14.7593 6.54196 13.86C5.81996 12.948 5.45896 11.7257 5.45896 10.193C5.45896 9.17966 5.62363 8.28666 5.95296 7.514C6.2823 6.74133 6.7573 6.13966 7.37796 5.709C7.99863 5.26566 8.7333 5.04399 9.58196 5.04399C10.5953 5.04399 11.52 5.37333 12.356 6.032V0.939996H14.598V15H12.679ZM10.171 13.442C10.9183 13.442 11.6466 13.2013 12.356 12.72V7.495C11.71 7.039 10.9943 6.811 10.209 6.811C9.3603 6.811 8.7333 7.08333 8.32796 7.628C7.9353 8.16 7.73896 8.98333 7.73896 10.098C7.73896 12.3273 8.54963 13.442 10.171 13.442Z" fill="#111111"/>
            <path d="M18.904 10.706C18.942 11.6687 19.208 12.378 19.702 12.834C20.2087 13.2773 20.9813 13.499 22.02 13.499C22.9573 13.499 23.9707 13.3217 25.06 12.967V14.544C24.6293 14.772 24.1163 14.9493 23.521 15.076C22.9383 15.2153 22.3303 15.285 21.697 15.285C20.101 15.285 18.8913 14.8543 18.068 13.993C17.2447 13.1317 16.833 11.8777 16.833 10.231C16.833 8.597 17.232 7.324 18.03 6.412C18.8407 5.5 19.968 5.04399 21.412 5.04399C22.6533 5.04399 23.6033 5.386 24.262 6.07C24.9333 6.74133 25.269 7.69766 25.269 8.939C25.269 9.59766 25.212 10.1867 25.098 10.706H18.904ZM21.317 6.678C20.633 6.678 20.0757 6.906 19.645 7.362C19.2143 7.818 18.9673 8.43233 18.904 9.205H23.293V9.053C23.293 8.28033 23.122 7.69133 22.78 7.286C22.4507 6.88066 21.963 6.678 21.317 6.678Z" fill="#111111"/>
            <path d="M33.8608 15V8.597C33.8608 7.97633 33.7342 7.52666 33.4808 7.248C33.2275 6.95666 32.8222 6.811 32.2648 6.811C31.4288 6.811 30.5738 7.08966 29.6998 7.647V15H27.4578V5.329H29.3198L29.5478 6.393C30.7385 5.49366 31.9798 5.04399 33.2718 5.04399C34.1965 5.04399 34.8995 5.291 35.3808 5.785C35.8622 6.26633 36.1028 6.96933 36.1028 7.894V15H33.8608Z" fill="#111111"/>
            <path d="M44.3622 14.772C43.7035 15.0127 42.9942 15.133 42.2342 15.133C41.2335 15.133 40.4925 14.8987 40.0112 14.43C39.5299 13.9613 39.2892 13.2457 39.2892 12.283V7.039H37.6552V5.633L39.3652 5.386L39.7072 2.669H41.5312V5.329H44.2862V7.039H41.5312V12.169C41.5312 12.5997 41.6325 12.91 41.8352 13.1C42.0505 13.2773 42.4052 13.366 42.8992 13.366C43.4312 13.366 43.9189 13.3153 44.3622 13.214V14.772Z" fill="#111111"/>
            <path d="M46.237 15V5.329H48.479V15H46.237ZM47.358 3.733C46.94 3.733 46.6106 3.619 46.37 3.391C46.1293 3.163 46.009 2.84633 46.009 2.441C46.009 2.03566 46.1293 1.719 46.37 1.491C46.6106 1.263 46.94 1.149 47.358 1.149C47.776 1.149 48.1053 1.263 48.346 1.491C48.5866 1.719 48.707 2.03566 48.707 2.441C48.707 2.84633 48.5866 3.163 48.346 3.391C48.1053 3.619 47.776 3.733 47.358 3.733Z" fill="#111111"/>
            <path d="M51.9281 15V7.039H50.2371V5.633L51.9281 5.386V4.094C51.9281 1.814 52.9984 0.673996 55.1391 0.673996C55.9117 0.673996 56.5767 0.794329 57.1341 1.035V2.574C56.4121 2.48533 55.9307 2.441 55.6901 2.441C55.1454 2.441 54.7527 2.54866 54.5121 2.764C54.2841 2.96666 54.1701 3.315 54.1701 3.809V5.329H60.5541V15H58.3121V7.039H54.1701V15H51.9281ZM59.4331 3.733C59.0151 3.733 58.6857 3.619 58.4451 3.391C58.2044 3.163 58.0841 2.84633 58.0841 2.441C58.0841 2.03566 58.2044 1.719 58.4451 1.491C58.6857 1.263 59.0151 1.149 59.4331 1.149C59.8511 1.149 60.1804 1.263 60.4211 1.491C60.6617 1.719 60.7821 2.03566 60.7821 2.441C60.7821 2.84633 60.6617 3.163 60.4211 3.391C60.1804 3.619 59.8511 3.733 59.4331 3.733Z" fill="#111111"/>
            <path d="M64.9382 10.706C64.9762 11.6687 65.2422 12.378 65.7362 12.834C66.2428 13.2773 67.0155 13.499 68.0542 13.499C68.9915 13.499 70.0048 13.3217 71.0942 12.967V14.544C70.6635 14.772 70.1505 14.9493 69.5552 15.076C68.9725 15.2153 68.3645 15.285 67.7312 15.285C66.1352 15.285 64.9255 14.8543 64.1022 13.993C63.2788 13.1317 62.8672 11.8777 62.8672 10.231C62.8672 8.597 63.2662 7.324 64.0642 6.412C64.8748 5.5 66.0022 5.04399 67.4462 5.04399C68.6875 5.04399 69.6375 5.386 70.2962 6.07C70.9675 6.74133 71.3032 7.69766 71.3032 8.939C71.3032 9.59766 71.2462 10.1867 71.1322 10.706H64.9382ZM67.3512 6.678C66.6672 6.678 66.1098 6.906 65.6792 7.362C65.2485 7.818 65.0015 8.43233 64.9382 9.205H69.3272V9.053C69.3272 8.28033 69.1562 7.69133 68.8142 7.286C68.4848 6.88066 67.9972 6.678 67.3512 6.678Z" fill="#111111"/>
            <path d="M72.77 15V13.347L78.166 7.039H72.96V5.329H80.579V6.982L75.183 13.29H80.636V15H72.77Z" fill="#111111"/>
            <path d="M82.126 11.048V9.129H87.94V11.048H82.126Z" fill="#111111"/>
            <path d="M92.6436 15L88.9006 5.329H91.2946L93.7456 12.986L96.2346 5.329H98.5336L94.8096 15H92.6436Z" fill="#111111"/>
            <path d="M104.038 15.285C102.569 15.285 101.423 14.8353 100.599 13.936C99.7759 13.024 99.3642 11.7637 99.3642 10.155C99.3642 8.54633 99.7759 7.29233 100.599 6.393C101.423 5.49366 102.569 5.04399 104.038 5.04399C105.508 5.04399 106.654 5.49366 107.477 6.393C108.301 7.29233 108.712 8.54633 108.712 10.155C108.712 11.7637 108.301 13.024 107.477 13.936C106.654 14.8353 105.508 15.285 104.038 15.285ZM104.038 13.518C105.634 13.518 106.432 12.397 106.432 10.155C106.432 7.92566 105.634 6.811 104.038 6.811C102.442 6.811 101.644 7.92566 101.644 10.155C101.644 12.397 102.442 13.518 104.038 13.518Z" fill="#111111"/>
            <path d="M117.452 15L117.224 13.936C116.033 14.8353 114.849 15.285 113.671 15.285C112.772 15.285 112.075 15.038 111.581 14.544C111.1 14.0373 110.859 13.3153 110.859 12.378V5.329H113.101V11.713C113.101 12.3337 113.228 12.7897 113.481 13.081C113.734 13.3723 114.14 13.518 114.697 13.518C115.482 13.518 116.274 13.2583 117.072 12.739V5.329H119.314V15H117.452Z" fill="#111111"/>
            <path d="M126.42 12.378C126.42 12.0993 126.331 11.8777 126.154 11.713C125.976 11.5357 125.647 11.3583 125.166 11.181L123.589 10.573C122.17 10.0283 121.461 9.14166 121.461 7.913C121.461 7.02633 121.79 6.32966 122.449 5.823C123.107 5.30366 123.988 5.04399 125.09 5.04399C126.141 5.04399 127.091 5.24666 127.94 5.652V7.229C126.952 6.91233 126.046 6.754 125.223 6.754C124.64 6.754 124.209 6.84266 123.931 7.02C123.665 7.18466 123.532 7.45066 123.532 7.818C123.532 8.09666 123.627 8.32466 123.817 8.502C124.019 8.66666 124.374 8.85033 124.881 9.053L126.344 9.623C127.104 9.91433 127.648 10.2627 127.978 10.668C128.32 11.0733 128.491 11.5863 128.491 12.207C128.491 13.157 128.149 13.9107 127.465 14.468C126.781 15.0127 125.831 15.285 124.615 15.285C124.019 15.285 123.437 15.2217 122.867 15.095C122.297 14.9683 121.796 14.791 121.366 14.563V12.986C122.582 13.3787 123.658 13.575 124.596 13.575C125.229 13.575 125.691 13.48 125.983 13.29C126.274 13.0873 126.42 12.7833 126.42 12.378Z" fill="#111111"/>
            <path d="M140.94 15L140.769 14.069C140.326 14.449 139.832 14.7467 139.287 14.962C138.755 15.1773 138.223 15.285 137.691 15.285C136.805 15.285 136.083 15.019 135.525 14.487C134.981 13.955 134.708 13.2647 134.708 12.416C134.708 11.4787 135.044 10.7313 135.715 10.174C136.399 9.61666 137.311 9.338 138.451 9.338C139.123 9.338 139.857 9.433 140.655 9.623V8.502C140.655 7.856 140.516 7.40633 140.237 7.153C139.959 6.89966 139.471 6.773 138.774 6.773C137.786 6.773 136.653 6.982 135.373 7.4V5.823C135.842 5.58233 136.412 5.39233 137.083 5.253C137.767 5.11366 138.451 5.04399 139.135 5.04399C140.377 5.04399 141.289 5.29733 141.871 5.804C142.467 6.31066 142.764 7.10233 142.764 8.179V15H140.94ZM138.318 13.689C138.686 13.689 139.072 13.613 139.477 13.461C139.883 13.2963 140.275 13.0683 140.655 12.777V10.953C139.984 10.8137 139.389 10.744 138.869 10.744C137.552 10.744 136.893 11.257 136.893 12.283C136.893 12.7263 137.02 13.0747 137.273 13.328C137.527 13.5687 137.875 13.689 138.318 13.689Z" fill="#111111"/>
            <path d="M147.658 15L143.915 5.329H146.309L148.76 12.986L151.249 5.329H153.548L149.824 15H147.658Z" fill="#111111"/>
            <path d="M156.45 10.706C156.488 11.6687 156.754 12.378 157.248 12.834C157.755 13.2773 158.527 13.499 159.566 13.499C160.503 13.499 161.517 13.3217 162.606 12.967V14.544C162.175 14.772 161.662 14.9493 161.067 15.076C160.484 15.2153 159.876 15.285 159.243 15.285C157.647 15.285 156.437 14.8543 155.614 13.993C154.791 13.1317 154.379 11.8777 154.379 10.231C154.379 8.597 154.778 7.324 155.576 6.412C156.387 5.5 157.514 5.04399 158.958 5.04399C160.199 5.04399 161.149 5.386 161.808 6.07C162.479 6.74133 162.815 7.69766 162.815 8.939C162.815 9.59766 162.758 10.1867 162.644 10.706H156.45ZM158.863 6.678C158.179 6.678 157.622 6.906 157.191 7.362C156.76 7.818 156.513 8.43233 156.45 9.205H160.839V9.053C160.839 8.28033 160.668 7.69133 160.326 7.286C159.997 6.88066 159.509 6.678 158.863 6.678Z" fill="#111111"/>
            <path d="M171.806 14.62C171.058 15.0127 170.165 15.209 169.127 15.209C167.645 15.209 166.505 14.7783 165.707 13.917C164.909 13.0557 164.51 11.8333 164.51 10.25C164.51 8.62866 164.921 7.36833 165.745 6.469C166.568 5.56966 167.721 5.12 169.203 5.12C170.127 5.12 170.97 5.31 171.73 5.69V7.267C170.881 7.02633 170.159 6.906 169.564 6.906C168.614 6.906 167.911 7.16566 167.455 7.685C167.011 8.19166 166.79 8.98333 166.79 10.06V10.307C166.79 11.371 167.011 12.1563 167.455 12.663C167.911 13.1697 168.614 13.423 169.564 13.423C170.248 13.423 170.995 13.2963 171.806 13.043V14.62Z" fill="#111111"/>
        </g>
        <g id="amazon_logo_CMYK_SQUID" transform="translate(178.000000, 0.000000)" fill="#1D222F">
            <path d="M53.3065725,20.3336049 C48.3140967,24.0329877 41.0763494,26 34.8437472,26 C26.1088327,26 18.2428699,22.7580247 12.2906468,17.3622222 C11.8232416,16.9378765 12.2398141,16.3597778 12.8018513,16.6875062 C19.2240372,20.4395309 27.1657695,22.698963 35.3683792,22.698963 C40.9014721,22.698963 46.9838141,21.5462963 52.5808476,19.162642 C53.4248625,18.8034568 54.132684,19.7208395 53.3065725,20.3336049" id="Fill-1"></path>
            <path d="M55.384,17.9521975 C54.7455539,17.1317531 51.1632862,17.5638025 49.5535836,17.757037 C49.0663569,17.8160988 48.9909071,17.3882222 49.4301784,17.0784691 C52.288,15.0629877 56.970684,15.6449383 57.5148178,16.3199753 C58.0627881,17.0004691 57.370632,21.7138519 54.692803,23.9633333 C54.2807063,24.309037 53.8884312,24.1244691 54.0716208,23.6677037 C54.6742602,22.1568148 56.0230855,18.7739259 55.384,17.9521975" id="Fill-2"></path>
            <path d="M49.6670781,2.8417037 L49.6670781,0.883679012 C49.6689963,0.585160494 49.8921487,0.387111111 50.161658,0.388074074 L58.9032862,0.387111111 C59.183026,0.387111111 59.4074572,0.591259259 59.4074572,0.881111111 L59.4074572,2.56051852 C59.4045799,2.84234568 59.1683197,3.20955556 58.7491896,3.7934321 L54.2209219,10.2841235 C55.9015985,10.244642 57.6794647,10.4979012 59.2070037,11.3594321 C59.5513234,11.5536296 59.6437175,11.8412346 59.6705725,12.1237037 L59.6705725,14.2133333 C59.6705725,14.5009383 59.3566245,14.8344444 59.0266914,14.6607901 C56.3363941,13.2455556 52.7659554,13.0911605 49.790803,14.6781235 C49.4864461,14.8405432 49.1686617,14.5121728 49.1686617,14.2236049 L49.1686617,12.2376543 C49.1686617,11.9198765 49.1747361,11.3764444 49.494119,10.8920741 L54.740119,3.33538272 L50.1722082,3.33506173 C49.8931078,3.33506173 49.6689963,3.13508642 49.6670781,2.8417037" id="Fill-3"></path>
            <g id="Group-8">
                <path d="M66.9329368,0.134814815 C70.8796654,0.134814815 73.0143197,3.53792593 73.0143197,7.86323457 C73.0143197,12.0440988 70.6568327,15.3611852 66.9329368,15.3611852 C63.0600595,15.3611852 60.9493829,11.9577531 60.9493829,7.71911111 C60.9493829,3.45093827 63.0843569,0.134814815 66.9329368,0.134814815 Z M66.9569145,2.93222222 C64.995539,2.93222222 64.871801,5.6134321 64.871801,7.28641975 C64.871801,8.95876543 64.847197,12.5345679 66.9329368,12.5345679 C68.9934201,12.5345679 69.0922082,9.65081481 69.0922082,7.89244444 C69.0922082,6.7391358 69.0426543,5.35471605 68.6944981,4.25854321 C68.396855,3.30681481 67.8009294,2.93222222 66.9569145,2.93222222 L66.9569145,2.93222222 Z" id="Fill-4"></path>
                <path d="M42.6991599,8.528 C42.6991599,9.56896296 42.7247361,10.4353086 42.2020223,11.360716 C41.7793755,12.1115062 41.1073606,12.5743704 40.3611747,12.5743704 C39.3413234,12.5743704 38.744119,11.7937284 38.744119,10.6375309 C38.744119,8.36333333 40.7761487,7.95022222 42.6991599,7.95022222 L42.6991599,8.528 Z M45.3808253,15.0379506 C45.2049888,15.1965185 44.8836877,15.2019753 44.7526097,15.1002222 C43.8440149,14.3943704 43.2282677,13.3209877 43.2282677,13.3209877 C41.7681859,14.8139012 40.7342677,15.262321 38.8435465,15.262321 C36.6046691,15.262321 34.8632491,13.8743704 34.8632491,11.1003951 C34.8632491,8.93276543 36.0320818,7.45879012 37.6993309,6.7365679 C39.141829,6.10037037 41.1575539,5.98481481 42.6991599,5.81116049 C42.6991599,5.81116049 42.8283197,4.13817284 42.3762602,3.5282963 C42.0261859,3.05548148 41.4305799,2.83432099 40.8838885,2.83432099 C39.8972862,2.83046914 38.9442528,3.36908642 38.7549888,4.40523457 C38.7009591,4.70150617 38.4829219,4.95059259 38.2533755,4.92555556 L35.7066245,4.64854321 C35.5116059,4.62575309 35.2468922,4.42385185 35.3095539,4.09002469 C35.9019628,0.950765432 38.7255762,0.00224691358 41.2566617,0.00224691358 C42.5504981,0.00224691358 44.2420446,0.348592593 45.2622156,1.33177778 C46.5554126,2.5454321 46.4316877,4.16417284 46.4316877,5.92735802 L46.4316877,10.086716 C46.4316877,11.3385679 46.9489665,11.8871358 47.4345948,12.5608889 C47.6043569,12.8045185 47.6430409,13.0930864 47.4266022,13.2705926 C46.8831078,13.728 45.3808253,15.0379506 45.3808253,15.0379506 L45.3808253,15.0379506 Z" id="Fill-6"></path>
                <path d="M7.83623048,8.528 C7.83623048,9.56896296 7.86116729,10.4353086 7.33877323,11.360716 C6.91612639,12.1115062 6.24411152,12.5743704 5.49792565,12.5743704 C4.47807435,12.5743704 3.88086989,11.7937284 3.88086989,10.6375309 C3.88086989,8.36333333 5.91289963,7.95022222 7.83623048,7.95022222 L7.83623048,8.528 Z M10.5175762,15.0379506 C10.3417398,15.1965185 10.0204387,15.2019753 9.88936059,15.1002222 C8.9807658,14.3943704 8.36501859,13.3209877 8.36501859,13.3209877 C6.9046171,14.8139012 5.87101859,15.262321 3.9806171,15.262321 C1.74142007,15.262321 0,13.8743704 0,11.1003951 C0,8.93276543 1.16883271,7.45879012 2.83608178,6.7365679 C4.27857993,6.10037037 6.29430483,5.98481481 7.83623048,5.81116049 C7.83623048,5.81116049 7.96475093,4.13817284 7.51301115,3.5282963 C7.1629368,3.05548148 6.56733086,2.83432099 6.0203197,2.83432099 C5.03403717,2.83046914 4.08100372,3.36908642 3.89173978,4.40523457 C3.83771004,4.70150617 3.61999257,4.95059259 3.3904461,4.92555556 L0.843375465,4.64854321 C0.648356877,4.62575309 0.383643123,4.42385185 0.446304833,4.09002469 C1.03839405,0.950765432 3.86232714,0.00224691358 6.39341264,0.00224691358 C7.68724907,0.00224691358 9.37879554,0.348592593 10.3989665,1.33177778 C11.6921636,2.5454321 11.568119,4.16417284 11.568119,5.92735802 L11.568119,10.086716 C11.568119,11.3385679 12.0857175,11.8871358 12.5716654,12.5608889 C12.7411078,12.8045185 12.7801115,13.0930864 12.5633532,13.2705926 C12.0201784,13.728 10.5175762,15.0379506 10.5175762,15.0379506 L10.5175762,15.0379506 Z" id="Fill-7"></path>
            </g>
            <path d="M18.2949814,7.31498765 C18.2949814,5.72898765 18.220171,3.53792593 20.1319926,3.53792593 C22.0179182,3.53792593 21.7701487,5.78676543 21.7701487,7.31498765 L21.7727063,14.5805432 C21.7727063,14.8431111 21.9830706,15.055284 22.2500223,15.0722963 L24.9067509,15.0722963 C25.1896877,15.0722963 25.4192342,14.8524198 25.4192342,14.5792593 L25.4192342,7.31498765 C25.4192342,6.5362716 25.3946171,5.38328395 25.6673234,4.69091358 C25.9406691,3.9988642 26.6110855,3.56617284 27.2565651,3.56617284 C28.0257695,3.56617284 28.6216952,3.82585185 28.8202305,4.74901235 C28.9442751,5.29693827 28.8947212,6.7391358 28.8947212,7.31498765 L28.8956803,14.5805432 C28.8956803,14.8431111 29.1057249,15.055284 29.3726766,15.0722963 L32.0287658,15.0722963 C32.3126617,15.0722963 32.5418885,14.8524198 32.5418885,14.5792593 L32.5444461,5.93120988 C32.5444461,4.46012346 32.7177249,2.78809877 31.87371,1.63414815 C31.1291227,0.596074074 29.9126543,0.134814815 28.7956134,0.134814815 C27.2316283,0.134814815 25.7670706,0.942419753 25.1212714,2.67254321 C24.376684,0.942419753 23.3338141,0.134814815 21.6707212,0.134814815 C20.0325651,0.134814815 18.8160967,0.942419753 18.1709368,2.67254321 L18.1207435,2.67254321 L18.1207435,0.922518519 C18.1207435,0.647111111 17.8982305,0.423703704 17.6239257,0.423703704 L15.1423941,0.423703704 C14.8680892,0.423703704 14.6455762,0.647111111 14.6455762,0.922518519 L14.6455762,14.5734815 C14.6455762,14.8488889 14.8680892,15.0722963 15.1423941,15.0722963 L17.7978439,15.0722963 C18.0721487,15.0722963 18.2946617,14.8488889 18.2946617,14.5734815 L18.2949814,7.31498765" id="Fill-9"></path>
            <path d="M78.6522751,14.5734815 C78.6522751,14.8488889 78.4300818,15.0722963 78.155777,15.0722963 L75.5000074,15.0722963 C75.2257026,15.0722963 75.0031896,14.8488889 75.0031896,14.5734815 L75.0031896,0.922518519 C75.0031896,0.647111111 75.2257026,0.423703704 75.5000074,0.423703704 L77.9553234,0.423703704 C78.2430558,0.423703704 78.4521413,0.656098765 78.4521413,0.813382716 L78.4521413,2.90333333 L78.5036134,2.90333333 C79.2485204,1.02812346 80.2904312,0.134814815 82.1274424,0.134814815 C83.3192937,0.134814815 84.4862082,0.566864198 85.2311152,1.7497037 C85.925829,2.84523457 85.925829,4.69091358 85.925829,6.01755556 L85.925829,14.6412099 C85.8964164,14.8835556 85.6790186,15.0722963 85.416223,15.0722963 L82.7505428,15.0722963 C82.5037323,15.0565679 82.305197,14.8748889 82.2767435,14.6412099 L82.2812193,6.36037037 C82.2812193,3.59024691 81.2239628,3.50871605 80.6139703,3.50871605 C79.9042305,3.50871605 79.3332416,4.06498765 79.0835539,4.58434568 C78.7114201,5.42083951 78.6519554,6.27691358 78.6519554,7.20039506 L78.6522751,14.5734815" id="Fill-10"></path>
        </g>
    </g>
</svg>